<svg width="164" height="32" fill="none" xmlns="http://www.w3.org/2000/svg"><path d="M16 0c-3.1645 0-6.25793.938384-8.88912 2.69649-2.63118 1.7581-4.68194 4.25696-5.89295 7.18057C.0069325 12.8007-.309921 16.0177.307443 19.1214c.617363 3.1037 2.141217 5.9547 4.378857 8.1923 2.23764 2.2376 5.08857 3.7615 8.1923 4.3789 3.1037.6173 6.3207.3005 9.2443-.9105 2.9237-1.211 5.4225-3.2618 7.1806-5.893C31.0616 22.2579 32 19.1645 32 16c0-4.2435-1.6857-8.31313-4.6863-11.31371C24.3131 1.68571 20.2435 0 16 0zm4.06 9.45H17v3.45h3v3.44h-3V25h-3v-8.66h-3V12.9h3V9.45c-.0551-.85425.2291-1.69574.7908-2.3417C15.3525 6.46234 16.1464 6.06407 17 6h3v3.45h.06zM60.64 14.49c.3252.0004.6475-.0607.95-.18.2745-.1023.5022-.3015.64-.56.1043-.2536.1554-.5259.15-.8-.004-.2443-.0657-.4841-.18-.7-.1286-.2434-.3477-.4265-.61-.51-.3213-.113-.6594-.1705-1-.17h-2v3h.57c.59-.05 1.08-.06 1.48-.08zM62.12 17.08c-.369-.0699-.7448-.0968-1.12-.08h-2.39v3.5h2.45c.4157-.0047.8265-.0896 1.21-.25.321-.1108.5932-.3301.77-.62.1465-.2773.2221-.5864.22-.9.0153-.3518-.0752-.7002-.26-1-.2078-.3133-.5194-.5435-.88-.65z" fill="#fff" fill-opacity=".8"/><path d="M60 0c-3.1645 0-6.2579.938384-8.8891 2.69649-2.6312 1.7581-4.682 4.25696-5.893 7.18057-1.211 2.92364-1.5278 6.14064-.9105 9.24434.6174 3.1037 2.1413 5.9547 4.3789 8.1923 2.2376 2.2376 5.0886 3.7615 8.1923 4.3789 3.1037.6173 6.3207.3005 9.2443-.9105 2.9237-1.211 5.4225-3.2618 7.1806-5.893C75.0616 22.2579 76 19.1645 76 16c0-4.2435-1.6857-8.31313-4.6863-11.31371C68.3131 1.68571 64.2435 0 60 0zm6.6 20.53c-.2624.526-.6463.9819-1.12 1.33-.5458.4114-1.1678.7105-1.83.88-.8214.1983-1.6652.289-2.51.27H55V9h5.45c.8281-.0132 1.6563.02354 2.48.11.543.08401 1.0694.25273 1.56.5.4968.23615.9113.6158 1.19 1.09.2655.4728.4001 1.0079.39 1.55.0119.6416-.1769 1.2709-.54 1.8-.3848.538-.9158.9545-1.53 1.2v.07c.8272.1388 1.5898.5341 2.18 1.13.5495.6212.8363 1.4315.8 2.26.0243.6286-.1062 1.2536-.38 1.82zM108.92 16c0 1.3155-.523 2.5771-1.453 3.5072-.93.9302-2.192 1.4528-3.507 1.4528s-2.577-.5226-3.507-1.4528C99.5226 18.5771 99 17.3155 99 16c.001-.3842.048-.767.14-1.14h-.9v6.84h11.4v-6.84h-.9c.101.3725.161.7547.18 1.14z" fill="#fff" fill-opacity=".8"/><path d="M104 18.66c.525-.004 1.038-.1633 1.472-.458.435-.2947.773-.7115.971-1.1978.198-.4864.248-1.0206.143-1.5353-.104-.5147-.359-.9868-.732-1.3568s-.847-.6213-1.362-.7224c-.516-.101-1.05-.0472-1.534.1548-.485.2019-.9.5428-1.191.9798-.291.437-.447.9505-.447 1.4757.001.3506.072.6976.207 1.021.135.3234.333.617.582.8641.249.247.544.4425.868.5755.325.133.672.2007 1.023.1994zM109.68 10.3h-3.04v3.04h3.04V10.3z" fill="#fff" fill-opacity=".8"/><path d="M104 0c-3.164 0-6.2579.938384-8.8891 2.69649-2.6312 1.7581-4.682 4.25696-5.893 7.18057-1.211 2.92364-1.5278 6.14064-.9105 9.24434.6174 3.1037 2.1413 5.9547 4.3789 8.1923 2.2376 2.2376 5.0886 3.7615 8.1927 4.3789 3.103.6173 6.32.3005 9.244-.9105 2.924-1.211 5.422-3.2618 7.181-5.893C119.062 22.2579 120 19.1645 120 16c0-4.2435-1.686-8.31313-4.686-11.31371C112.313 1.68571 108.243 0 104 0zm8 21.7c.003.3045-.056.6064-.171.888-.116.2816-.287.5371-.504.7515-.216.2144-.473.3833-.756.4967-.282.1135-.585.1692-.889.1638h-11.4c-.3007-.0013-.5982-.0618-.8756-.1781-.2773-.1163-.529-.2861-.7407-.4997-.2118-.2136-.3793-.4668-.4932-.7451S95.9987 22.0007 96 21.7V10.3c-.0013-.30073.0566-.59877.1705-.87711.1139-.27834.2814-.53152.4932-.7451.2117-.21357.4634-.38336.7407-.49965.2774-.1163.5749-.17683.8756-.17814h11.39c.305-.00533.608.0503.891.16362.283.11332.541.28206.758.4963.217.21424.389.46967.506.75131.117.28164.176.58381.175.88877v11.4zM148 0c-3.164 0-6.258.938384-8.889 2.69649-2.631 1.7581-4.682 4.25696-5.893 7.18057-1.211 2.92364-1.528 6.14064-.911 9.24434.618 3.1037 2.142 5.9547 4.379 8.1923 2.238 2.2376 5.089 3.7615 8.193 4.3789 3.103.6173 6.32.3005 9.244-.9105 2.924-1.211 5.422-3.2618 7.181-5.893C163.062 22.2579 164 19.1645 164 16c0-4.2435-1.686-8.31313-4.686-11.31371C156.313 1.68571 152.243 0 148 0zm7.94 12.81c-.25 6.52-3.46 10.83-11 10.7h-.48c-.45 0-4.55-.44-5.35-1.82 1.789.2655 3.613-.1406 5.12-1.14-1.05-.29-2.92-.46-3.25-2.85.413.1642.864.2058 1.3.12-1.28-.82-2.75-1.52-2.67-3.65.418.3193.935.482 1.46.46-.77-.23-2.15-3.24-1-4.78 2 1.79 4.07 3.48 7.8 3.64.23-2.21 1.24-3.7 3.17-4.32.698-.23668 1.451-.25432 2.159-.05054.708.20377 1.336.61921 1.801 1.19054.74-.23 1.45-.47 2.19-.69-.014.33711-.105.6665-.267.9629-.161.2964-.388.552-.663.7471.257.0301.517.0036.762-.0776.245-.0812.47-.2152.658-.3924-.117.4385-.336.8434-.638 1.1821-.302.3387-.68.6017-1.102.7679z" fill="#fff" fill-opacity=".8"/></svg>